# xmcd
#
# Track frame offsets: 
#        150
#        12112
#        31842
#        46775
#        61925
#        80705
#        95717
#        115237
#        128450
#        141850
#
# Disc length: 2154 seconds
#
# Revision: 2
# Processed by: cddbd v1.5.2PL0 Copyright (c) Steve Scherf et al.
# Submitted via: ExactAudioCopy v1.3
#
DISCID=7908680a
DTITLE=Barry Melton - Level With Me
DYEAR=1979
DGENRE=Rock
TTITLE0=I Can't Dance
TTITLE1=Astral Lover
TTITLE2=You Gave Me The Sunshine
TTITLE3=Colorado Town
TTITLE4=Level With Me
TTITLE5=Dance
TTITLE6=Remember The Song
TTITLE7=Money
TTITLE8=San Franzisco Shuffle
TTITLE9=Seventh Seal
EXTD=CD0768
EXTT0=
EXTT1=
EXTT2=
EXTT3=
EXTT4=
EXTT5=
EXTT6=
EXTT7=
EXTT8=
EXTT9=
PLAYORDER=
